<mxfile host="65bd71144e">
    <diagram id="q5oddJxPjopJmD5tWF5G" name="Page-1">
        <mxGraphModel dx="1372" dy="678" grid="1" gridSize="10" guides="1" tooltips="1" connect="1" arrows="1" fold="1" page="1" pageScale="1" pageWidth="1654" pageHeight="1169" math="0" shadow="0">
            <root>
                <mxCell id="0"/>
                <mxCell id="1" parent="0"/>
                <mxCell id="311" value="" style="rounded=0;whiteSpace=wrap;html=1;strokeColor=#82b366;fontSize=12;fillColor=none;gradientColor=#97d077;dashed=1;" parent="1" vertex="1">
                    <mxGeometry x="1142" y="635" width="231" height="50" as="geometry"/>
                </mxCell>
                <mxCell id="61" value="" style="rounded=0;whiteSpace=wrap;html=1;dashed=1;fontSize=15;fillColor=none;gradientColor=#d5739d;strokeColor=#996185;" parent="1" vertex="1">
                    <mxGeometry x="238" y="635" width="894" height="50" as="geometry"/>
                </mxCell>
                <mxCell id="60" value="" style="rounded=0;whiteSpace=wrap;html=1;fontSize=15;fillColor=none;dashed=1;fontColor=#ffffff;strokeColor=#6F0000;" parent="1" vertex="1">
                    <mxGeometry x="243" y="640" width="649" height="41" as="geometry"/>
                </mxCell>
                <mxCell id="303" style="edgeStyle=none;html=1;exitX=0;exitY=0.5;exitDx=0;exitDy=0;entryX=0;entryY=0.75;entryDx=0;entryDy=0;strokeColor=#6F0000;fontSize=9;startArrow=none;startFill=0;endArrow=classic;endFill=1;fillColor=#a20025;" parent="1" source="48" target="60" edge="1">
                    <mxGeometry relative="1" as="geometry">
                        <Array as="points">
                            <mxPoint x="227" y="770"/>
                            <mxPoint x="227" y="671"/>
                        </Array>
                    </mxGeometry>
                </mxCell>
                <mxCell id="48" value="&lt;font style=&quot;font-size: 12px;&quot;&gt;Limited decentralization&lt;/font&gt;" style="text;html=1;strokeColor=none;fillColor=none;align=center;verticalAlign=middle;whiteSpace=wrap;rounded=0;fontSize=15;" parent="1" vertex="1">
                    <mxGeometry x="238" y="755" width="139" height="30" as="geometry"/>
                </mxCell>
                <mxCell id="302" style="edgeStyle=none;html=1;strokeColor=#996185;fontSize=9;startArrow=none;startFill=0;endArrow=classic;endFill=1;entryX=0;entryY=0.25;entryDx=0;entryDy=0;fillColor=#e6d0de;gradientColor=#d5739d;" parent="1" source="63" target="61" edge="1">
                    <mxGeometry relative="1" as="geometry">
                        <mxPoint x="227" y="749.9999999999998" as="targetPoint"/>
                        <Array as="points">
                            <mxPoint x="217" y="750"/>
                            <mxPoint x="217" y="647"/>
                        </Array>
                    </mxGeometry>
                </mxCell>
                <mxCell id="63" value="&lt;font style=&quot;font-size: 12px;&quot;&gt;Not secured by blockchain&lt;/font&gt;" style="text;whiteSpace=wrap;html=1;fontSize=15;" parent="1" vertex="1">
                    <mxGeometry x="242" y="735" width="180" height="30" as="geometry"/>
                </mxCell>
                <mxCell id="122" value="" style="endArrow=none;dashed=1;html=1;fontSize=12;strokeWidth=2;exitX=0.671;exitY=-0.002;exitDx=0;exitDy=0;exitPerimeter=0;" parent="1" source="127" edge="1">
                    <mxGeometry width="50" height="50" relative="1" as="geometry">
                        <mxPoint x="676.31" y="685" as="sourcePoint"/>
                        <mxPoint x="677" y="385" as="targetPoint"/>
                    </mxGeometry>
                </mxCell>
                <mxCell id="123" value="" style="endArrow=none;dashed=1;html=1;fontSize=12;strokeWidth=2;exitX=0.661;exitY=-0.06;exitDx=0;exitDy=0;exitPerimeter=0;fillColor=#fff2cc;gradientColor=#ffd966;strokeColor=#d6b656;" parent="1" source="130" edge="1">
                    <mxGeometry width="50" height="50" relative="1" as="geometry">
                        <mxPoint x="1137" y="585" as="sourcePoint"/>
                        <mxPoint x="1137" y="385" as="targetPoint"/>
                    </mxGeometry>
                </mxCell>
                <mxCell id="124" value="&lt;font style=&quot;font-size: 20px;&quot;&gt;Web2&lt;/font&gt;" style="text;html=1;strokeColor=none;fillColor=none;align=center;verticalAlign=middle;whiteSpace=wrap;rounded=0;dashed=1;fontSize=12;" parent="1" vertex="1">
                    <mxGeometry x="417" y="385" width="60" height="30" as="geometry"/>
                </mxCell>
                <mxCell id="125" value="&lt;font style=&quot;font-size: 20px;&quot;&gt;Web3&lt;/font&gt;" style="text;html=1;strokeColor=none;fillColor=none;align=center;verticalAlign=middle;whiteSpace=wrap;rounded=0;dashed=1;fontSize=12;" parent="1" vertex="1">
                    <mxGeometry x="877" y="385" width="60" height="30" as="geometry"/>
                </mxCell>
                <mxCell id="126" value="&lt;font style=&quot;font-size: 20px;&quot;&gt;Web3 with Logos Network&lt;/font&gt;" style="text;html=1;strokeColor=none;fillColor=none;align=center;verticalAlign=middle;whiteSpace=wrap;rounded=0;dashed=1;fontSize=12;" parent="1" vertex="1">
                    <mxGeometry x="1157" y="390" width="260" height="20" as="geometry"/>
                </mxCell>
                <mxCell id="127" value="&lt;font style=&quot;font-size: 12px;&quot;&gt;physical infrastructure (hardware layer)&lt;br&gt;(Microsoft, Amazon, Google, IBM,&amp;nbsp;Equinix,&amp;nbsp;Digital Realty, Cologix, Hetzner, etc.)&lt;/font&gt;" style="rounded=0;whiteSpace=wrap;html=1;fontSize=15;fillColor=none;fontColor=default;strokeColor=#432D57;" parent="1" vertex="1">
                    <mxGeometry x="247" y="695" width="640" height="40" as="geometry"/>
                </mxCell>
                <mxCell id="164" style="edgeStyle=none;html=1;exitX=0.25;exitY=1;exitDx=0;exitDy=0;entryX=0.078;entryY=0.007;entryDx=0;entryDy=0;entryPerimeter=0;fontSize=10;fillColor=#1ba1e2;strokeColor=#006EAF;" parent="1" source="128" target="127" edge="1">
                    <mxGeometry relative="1" as="geometry"/>
                </mxCell>
                <mxCell id="165" style="edgeStyle=none;html=1;exitX=0.75;exitY=1;exitDx=0;exitDy=0;entryX=0.234;entryY=-0.004;entryDx=0;entryDy=0;entryPerimeter=0;fontSize=10;fillColor=#1ba1e2;strokeColor=#006EAF;" parent="1" source="128" target="127" edge="1">
                    <mxGeometry relative="1" as="geometry"/>
                </mxCell>
                <mxCell id="128" value="cloud core compute infrastructure&amp;nbsp;&lt;br&gt;(Azure,AWS,GCloud, etc.)" style="rounded=0;whiteSpace=wrap;html=1;fontSize=12;fillColor=none;fontColor=default;strokeColor=#006EAF;" parent="1" vertex="1">
                    <mxGeometry x="247" y="645" width="200" height="30" as="geometry"/>
                </mxCell>
                <mxCell id="168" style="edgeStyle=none;html=1;exitX=0.25;exitY=1;exitDx=0;exitDy=0;entryX=0.41;entryY=-0.007;entryDx=0;entryDy=0;entryPerimeter=0;fontSize=10;" parent="1" source="129" target="127" edge="1">
                    <mxGeometry relative="1" as="geometry"/>
                </mxCell>
                <mxCell id="169" style="edgeStyle=none;html=1;exitX=0.75;exitY=1;exitDx=0;exitDy=0;entryX=0.574;entryY=0.004;entryDx=0;entryDy=0;entryPerimeter=0;fontSize=10;" parent="1" source="129" target="127" edge="1">
                    <mxGeometry relative="1" as="geometry"/>
                </mxCell>
                <mxCell id="129" value="on-prem core compute infrastructure&amp;nbsp;&amp;nbsp;&lt;br&gt;(private organisations)" style="rounded=0;whiteSpace=wrap;html=1;fontSize=12;fillColor=none;" parent="1" vertex="1">
                    <mxGeometry x="457" y="645" width="210" height="30" as="geometry"/>
                </mxCell>
                <mxCell id="130" value="layer-0 blockchain (blockchain infrastructure)" style="rounded=0;whiteSpace=wrap;html=1;fillColor=none;" parent="1" vertex="1">
                    <mxGeometry x="687" y="595" width="680" height="30" as="geometry"/>
                </mxCell>
                <mxCell id="182" style="edgeStyle=none;html=1;exitX=0.5;exitY=1;exitDx=0;exitDy=0;entryX=0.377;entryY=-0.033;entryDx=0;entryDy=0;entryPerimeter=0;fontSize=10;" parent="1" source="132" target="128" edge="1">
                    <mxGeometry relative="1" as="geometry"/>
                </mxCell>
                <mxCell id="132" value="cloud PaaS provider&amp;nbsp;&amp;nbsp;&lt;br&gt;(Azure,AWS,GCloud, etc.)" style="rounded=0;whiteSpace=wrap;html=1;fontSize=12;fillColor=none;fontColor=default;strokeColor=#006EAF;" parent="1" vertex="1">
                    <mxGeometry x="247" y="545" width="150" height="30" as="geometry"/>
                </mxCell>
                <mxCell id="221" style="edgeStyle=none;html=1;exitX=0.25;exitY=1;exitDx=0;exitDy=0;entryX=0.871;entryY=0;entryDx=0;entryDy=0;entryPerimeter=0;fontSize=10;startArrow=none;startFill=0;endArrow=classic;endFill=1;fillColor=#fff2cc;gradientColor=#ffd966;strokeColor=#d6b656;" parent="1" source="133" target="138" edge="1">
                    <mxGeometry relative="1" as="geometry"/>
                </mxCell>
                <mxCell id="222" style="edgeStyle=none;html=1;exitX=0.75;exitY=1;exitDx=0;exitDy=0;entryX=0.5;entryY=0;entryDx=0;entryDy=0;fontSize=10;startArrow=none;startFill=0;endArrow=classic;endFill=1;fillColor=#fff2cc;gradientColor=#ffd966;strokeColor=#d6b656;" parent="1" source="133" target="163" edge="1">
                    <mxGeometry relative="1" as="geometry"/>
                </mxCell>
                <mxCell id="225" style="edgeStyle=none;html=1;exitX=0.5;exitY=0;exitDx=0;exitDy=0;entryX=0.838;entryY=1;entryDx=0;entryDy=0;entryPerimeter=0;fontSize=10;startArrow=classic;startFill=1;endArrow=none;endFill=0;" parent="1" source="133" target="130" edge="1">
                    <mxGeometry relative="1" as="geometry"/>
                </mxCell>
                <mxCell id="269" style="edgeStyle=none;html=1;exitX=1;exitY=1;exitDx=0;exitDy=0;entryX=0.5;entryY=1;entryDx=0;entryDy=0;strokeColor=default;fontSize=12;startArrow=classic;startFill=1;endArrow=none;endFill=0;" parent="1" source="133" target="264" edge="1">
                    <mxGeometry relative="1" as="geometry">
                        <mxPoint x="1337" y="675" as="sourcePoint"/>
                        <Array as="points">
                            <mxPoint x="1397" y="675"/>
                        </Array>
                    </mxGeometry>
                </mxCell>
                <mxCell id="133" value="web3 core compute infrastructure&amp;nbsp;&lt;br&gt;(Logos Network)" style="rounded=0;whiteSpace=wrap;html=1;fontSize=12;fillColor=none;gradientColor=#ffd966;strokeColor=#d6b656;" parent="1" vertex="1">
                    <mxGeometry x="1147" y="645" width="220" height="30" as="geometry"/>
                </mxCell>
                <mxCell id="184" style="edgeStyle=none;html=1;exitX=0.115;exitY=0.982;exitDx=0;exitDy=0;entryX=0.95;entryY=0;entryDx=0;entryDy=0;entryPerimeter=0;fontSize=10;exitPerimeter=0;" parent="1" source="135" target="128" edge="1">
                    <mxGeometry relative="1" as="geometry"/>
                </mxCell>
                <mxCell id="185" style="edgeStyle=none;html=1;exitX=0.75;exitY=1;exitDx=0;exitDy=0;fontSize=10;" parent="1" source="135" edge="1">
                    <mxGeometry relative="1" as="geometry">
                        <mxPoint x="602" y="645" as="targetPoint"/>
                    </mxGeometry>
                </mxCell>
                <mxCell id="135" value="private platform as a service (PaaS) provider&lt;br&gt;(private organisations)" style="rounded=0;whiteSpace=wrap;html=1;fontSize=12;fillColor=none;" parent="1" vertex="1">
                    <mxGeometry x="407" y="545" width="260" height="30" as="geometry"/>
                </mxCell>
                <mxCell id="226" style="edgeStyle=none;html=1;exitX=0.5;exitY=1;exitDx=0;exitDy=0;entryX=0.175;entryY=0.008;entryDx=0;entryDy=0;entryPerimeter=0;fontSize=10;startArrow=none;startFill=0;endArrow=classic;endFill=1;" parent="1" source="137" target="139" edge="1">
                    <mxGeometry relative="1" as="geometry"/>
                </mxCell>
                <mxCell id="137" value="layer-1 &lt;br&gt;blockchain" style="rounded=0;whiteSpace=wrap;html=1;fillColor=none;" parent="1" vertex="1">
                    <mxGeometry x="687" y="545" width="70" height="30" as="geometry"/>
                </mxCell>
                <mxCell id="138" value="&lt;span style=&quot;&quot;&gt;physical infrastructure (hardware layer)&lt;/span&gt;&amp;nbsp;&lt;br&gt;(community private devices)" style="rounded=0;whiteSpace=wrap;html=1;fontSize=12;fillColor=none;fontColor=default;" parent="1" vertex="1">
                    <mxGeometry x="897" y="695" width="350" height="40" as="geometry"/>
                </mxCell>
                <mxCell id="166" style="edgeStyle=none;html=1;exitX=0.25;exitY=1;exitDx=0;exitDy=0;entryX=0.766;entryY=-0.007;entryDx=0;entryDy=0;entryPerimeter=0;fontSize=10;fillColor=#1ba1e2;strokeColor=#006EAF;" parent="1" source="139" target="127" edge="1">
                    <mxGeometry relative="1" as="geometry"/>
                </mxCell>
                <mxCell id="167" style="edgeStyle=none;html=1;exitX=0.75;exitY=1;exitDx=0;exitDy=0;entryX=0.922;entryY=-0.007;entryDx=0;entryDy=0;entryPerimeter=0;fontSize=10;fillColor=#1ba1e2;strokeColor=#006EAF;" parent="1" source="139" target="127" edge="1">
                    <mxGeometry relative="1" as="geometry"/>
                </mxCell>
                <mxCell id="223" style="edgeStyle=none;html=1;exitX=0.5;exitY=0;exitDx=0;exitDy=0;entryX=0.147;entryY=1;entryDx=0;entryDy=0;entryPerimeter=0;fontSize=10;startArrow=classic;startFill=1;endArrow=none;endFill=0;" parent="1" source="139" target="130" edge="1">
                    <mxGeometry relative="1" as="geometry"/>
                </mxCell>
                <mxCell id="139" value="cloud core compute infrastructure&amp;nbsp;&lt;br&gt;(Azure,AWS,GCloud, etc.)" style="rounded=0;whiteSpace=wrap;html=1;fontSize=12;fillColor=none;fontColor=default;strokeColor=#006EAF;" parent="1" vertex="1">
                    <mxGeometry x="687" y="645" width="200" height="30" as="geometry"/>
                </mxCell>
                <mxCell id="186" style="edgeStyle=none;html=1;exitX=0.5;exitY=1;exitDx=0;exitDy=0;fontSize=10;startArrow=classic;startFill=1;endArrow=none;endFill=0;fontColor=default;" parent="1" source="141" edge="1">
                    <mxGeometry relative="1" as="geometry">
                        <mxPoint x="272" y="545" as="targetPoint"/>
                    </mxGeometry>
                </mxCell>
                <mxCell id="189" style="edgeStyle=none;html=1;exitX=1;exitY=0;exitDx=0;exitDy=0;entryX=1;entryY=0.5;entryDx=0;entryDy=0;fontSize=10;startArrow=none;startFill=0;endArrow=classic;endFill=1;" parent="1" source="141" target="148" edge="1">
                    <mxGeometry relative="1" as="geometry">
                        <Array as="points">
                            <mxPoint x="297" y="445"/>
                        </Array>
                    </mxGeometry>
                </mxCell>
                <mxCell id="191" style="edgeStyle=none;html=1;exitX=1;exitY=0;exitDx=0;exitDy=0;entryX=1;entryY=0.5;entryDx=0;entryDy=0;fontSize=10;startArrow=none;startFill=0;endArrow=classic;endFill=1;" parent="1" source="141" target="147" edge="1">
                    <mxGeometry relative="1" as="geometry">
                        <Array as="points">
                            <mxPoint x="297" y="475"/>
                        </Array>
                    </mxGeometry>
                </mxCell>
                <mxCell id="141" value="Service-Platform" style="rounded=0;whiteSpace=wrap;html=1;fillColor=none;dashed=1;" parent="1" vertex="1">
                    <mxGeometry x="247" y="495" width="50" height="30" as="geometry"/>
                </mxCell>
                <mxCell id="187" style="edgeStyle=none;html=1;exitX=0.5;exitY=1;exitDx=0;exitDy=0;entryX=0.635;entryY=-0.009;entryDx=0;entryDy=0;entryPerimeter=0;fontSize=10;startArrow=classic;startFill=1;endArrow=none;endFill=0;fontColor=default;" parent="1" source="142" target="132" edge="1">
                    <mxGeometry relative="1" as="geometry"/>
                </mxCell>
                <mxCell id="192" style="edgeStyle=none;html=1;exitX=1;exitY=0;exitDx=0;exitDy=0;entryX=1;entryY=0.5;entryDx=0;entryDy=0;fontSize=10;startArrow=none;startFill=0;endArrow=classic;endFill=1;" parent="1" source="142" target="151" edge="1">
                    <mxGeometry relative="1" as="geometry">
                        <Array as="points">
                            <mxPoint x="367" y="445"/>
                        </Array>
                    </mxGeometry>
                </mxCell>
                <mxCell id="193" style="edgeStyle=none;html=1;exitX=1;exitY=0;exitDx=0;exitDy=0;entryX=1;entryY=0.5;entryDx=0;entryDy=0;fontSize=10;startArrow=none;startFill=0;endArrow=classic;endFill=1;" parent="1" source="142" target="150" edge="1">
                    <mxGeometry relative="1" as="geometry">
                        <Array as="points">
                            <mxPoint x="367" y="475"/>
                        </Array>
                    </mxGeometry>
                </mxCell>
                <mxCell id="142" value="Service-Platform" style="rounded=0;whiteSpace=wrap;html=1;fillColor=none;dashed=1;" parent="1" vertex="1">
                    <mxGeometry x="317" y="495" width="50" height="30" as="geometry"/>
                </mxCell>
                <mxCell id="195" style="edgeStyle=none;html=1;exitX=0.5;exitY=1;exitDx=0;exitDy=0;entryX=0.097;entryY=0;entryDx=0;entryDy=0;entryPerimeter=0;fontSize=10;startArrow=classic;startFill=1;endArrow=none;endFill=0;" parent="1" source="143" target="135" edge="1">
                    <mxGeometry relative="1" as="geometry"/>
                </mxCell>
                <mxCell id="143" value="Service-Platform" style="rounded=0;whiteSpace=wrap;html=1;fillColor=none;dashed=1;" parent="1" vertex="1">
                    <mxGeometry x="407" y="495" width="50" height="30" as="geometry"/>
                </mxCell>
                <mxCell id="196" style="edgeStyle=none;html=1;exitX=0.5;exitY=1;exitDx=0;exitDy=0;entryX=0.366;entryY=0.006;entryDx=0;entryDy=0;entryPerimeter=0;fontSize=10;startArrow=classic;startFill=1;endArrow=none;endFill=0;" parent="1" source="144" target="135" edge="1">
                    <mxGeometry relative="1" as="geometry"/>
                </mxCell>
                <mxCell id="144" value="Service-Platform" style="rounded=0;whiteSpace=wrap;html=1;fillColor=none;dashed=1;" parent="1" vertex="1">
                    <mxGeometry x="477" y="495" width="50" height="30" as="geometry"/>
                </mxCell>
                <mxCell id="197" style="edgeStyle=none;html=1;exitX=0.5;exitY=1;exitDx=0;exitDy=0;entryX=0.635;entryY=-0.009;entryDx=0;entryDy=0;entryPerimeter=0;fontSize=10;startArrow=classic;startFill=1;endArrow=none;endFill=0;" parent="1" source="145" target="135" edge="1">
                    <mxGeometry relative="1" as="geometry"/>
                </mxCell>
                <mxCell id="145" value="Service-Platform" style="rounded=0;whiteSpace=wrap;html=1;fillColor=none;dashed=1;" parent="1" vertex="1">
                    <mxGeometry x="547" y="495" width="50" height="30" as="geometry"/>
                </mxCell>
                <mxCell id="147" value="&lt;font style=&quot;font-size: 10px;&quot;&gt;App&lt;/font&gt;" style="rounded=0;whiteSpace=wrap;html=1;fontSize=12;fillColor=none;" parent="1" vertex="1">
                    <mxGeometry x="247" y="465" width="30" height="20" as="geometry"/>
                </mxCell>
                <mxCell id="148" value="&lt;font style=&quot;font-size: 10px;&quot;&gt;App&lt;/font&gt;" style="rounded=0;whiteSpace=wrap;html=1;fontSize=12;fillColor=none;" parent="1" vertex="1">
                    <mxGeometry x="247" y="435" width="30" height="20" as="geometry"/>
                </mxCell>
                <mxCell id="150" value="&lt;font style=&quot;font-size: 10px;&quot;&gt;App&lt;/font&gt;" style="rounded=0;whiteSpace=wrap;html=1;fontSize=12;fillColor=none;" parent="1" vertex="1">
                    <mxGeometry x="317" y="465" width="30" height="20" as="geometry"/>
                </mxCell>
                <mxCell id="151" value="&lt;font style=&quot;font-size: 10px;&quot;&gt;App&lt;/font&gt;" style="rounded=0;whiteSpace=wrap;html=1;fontSize=12;fillColor=none;" parent="1" vertex="1">
                    <mxGeometry x="317" y="435" width="30" height="20" as="geometry"/>
                </mxCell>
                <mxCell id="198" style="edgeStyle=none;html=1;entryX=1;entryY=0;entryDx=0;entryDy=0;fontSize=10;startArrow=classic;startFill=1;endArrow=none;endFill=0;" parent="1" source="152" target="143" edge="1">
                    <mxGeometry relative="1" as="geometry">
                        <Array as="points">
                            <mxPoint x="457" y="475"/>
                        </Array>
                    </mxGeometry>
                </mxCell>
                <mxCell id="152" value="&lt;font style=&quot;font-size: 10px;&quot;&gt;App&lt;/font&gt;" style="rounded=0;whiteSpace=wrap;html=1;fontSize=12;fillColor=none;" parent="1" vertex="1">
                    <mxGeometry x="407" y="465" width="30" height="20" as="geometry"/>
                </mxCell>
                <mxCell id="199" style="edgeStyle=none;html=1;exitX=1;exitY=0.5;exitDx=0;exitDy=0;fontSize=10;startArrow=classic;startFill=1;endArrow=none;endFill=0;" parent="1" source="153" edge="1">
                    <mxGeometry relative="1" as="geometry">
                        <mxPoint x="457" y="495" as="targetPoint"/>
                        <Array as="points">
                            <mxPoint x="457" y="445"/>
                        </Array>
                    </mxGeometry>
                </mxCell>
                <mxCell id="153" value="&lt;font style=&quot;font-size: 10px;&quot;&gt;App&lt;/font&gt;" style="rounded=0;whiteSpace=wrap;html=1;fontSize=12;fillColor=none;" parent="1" vertex="1">
                    <mxGeometry x="407" y="435" width="30" height="20" as="geometry"/>
                </mxCell>
                <mxCell id="201" style="edgeStyle=none;html=1;exitX=1;exitY=0.5;exitDx=0;exitDy=0;fontSize=10;startArrow=classic;startFill=1;endArrow=none;endFill=0;" parent="1" source="154" edge="1">
                    <mxGeometry relative="1" as="geometry">
                        <mxPoint x="527" y="495" as="targetPoint"/>
                        <Array as="points">
                            <mxPoint x="527" y="475"/>
                        </Array>
                    </mxGeometry>
                </mxCell>
                <mxCell id="154" value="&lt;font style=&quot;font-size: 10px;&quot;&gt;App&lt;/font&gt;" style="rounded=0;whiteSpace=wrap;html=1;fontSize=12;fillColor=none;" parent="1" vertex="1">
                    <mxGeometry x="477" y="465" width="30" height="20" as="geometry"/>
                </mxCell>
                <mxCell id="200" style="edgeStyle=none;html=1;exitX=1;exitY=0.5;exitDx=0;exitDy=0;entryX=1;entryY=0;entryDx=0;entryDy=0;fontSize=10;startArrow=classic;startFill=1;endArrow=none;endFill=0;" parent="1" source="155" target="144" edge="1">
                    <mxGeometry relative="1" as="geometry">
                        <Array as="points">
                            <mxPoint x="527" y="445"/>
                        </Array>
                    </mxGeometry>
                </mxCell>
                <mxCell id="155" value="&lt;font style=&quot;font-size: 10px;&quot;&gt;App&lt;/font&gt;" style="rounded=0;whiteSpace=wrap;html=1;fontSize=12;fillColor=none;" parent="1" vertex="1">
                    <mxGeometry x="477" y="435" width="30" height="20" as="geometry"/>
                </mxCell>
                <mxCell id="203" style="edgeStyle=none;html=1;exitX=1;exitY=0.5;exitDx=0;exitDy=0;fontSize=10;startArrow=classic;startFill=1;endArrow=none;endFill=0;" parent="1" source="156" edge="1">
                    <mxGeometry relative="1" as="geometry">
                        <mxPoint x="597" y="495" as="targetPoint"/>
                        <Array as="points">
                            <mxPoint x="597" y="475"/>
                        </Array>
                    </mxGeometry>
                </mxCell>
                <mxCell id="156" value="&lt;font style=&quot;font-size: 10px;&quot;&gt;App&lt;/font&gt;" style="rounded=0;whiteSpace=wrap;html=1;fontSize=12;fillColor=none;" parent="1" vertex="1">
                    <mxGeometry x="547" y="465" width="30" height="20" as="geometry"/>
                </mxCell>
                <mxCell id="202" style="edgeStyle=none;html=1;exitX=1;exitY=0.5;exitDx=0;exitDy=0;entryX=1;entryY=0;entryDx=0;entryDy=0;fontSize=10;startArrow=classic;startFill=1;endArrow=none;endFill=0;" parent="1" source="157" target="145" edge="1">
                    <mxGeometry relative="1" as="geometry">
                        <Array as="points">
                            <mxPoint x="597" y="445"/>
                        </Array>
                    </mxGeometry>
                </mxCell>
                <mxCell id="157" value="&lt;font style=&quot;font-size: 10px;&quot;&gt;App&lt;/font&gt;" style="rounded=0;whiteSpace=wrap;html=1;fontSize=12;fillColor=none;" parent="1" vertex="1">
                    <mxGeometry x="547" y="435" width="30" height="20" as="geometry"/>
                </mxCell>
                <mxCell id="219" style="edgeStyle=none;html=1;exitX=0.25;exitY=1;exitDx=0;exitDy=0;entryX=0.164;entryY=0;entryDx=0;entryDy=0;entryPerimeter=0;fontSize=10;startArrow=none;startFill=0;endArrow=classic;endFill=1;" parent="1" source="161" target="138" edge="1">
                    <mxGeometry relative="1" as="geometry"/>
                </mxCell>
                <mxCell id="220" style="edgeStyle=none;html=1;exitX=0.75;exitY=1;exitDx=0;exitDy=0;entryX=0.493;entryY=0;entryDx=0;entryDy=0;entryPerimeter=0;fontSize=10;startArrow=none;startFill=0;endArrow=classic;endFill=1;" parent="1" source="161" target="138" edge="1">
                    <mxGeometry relative="1" as="geometry"/>
                </mxCell>
                <mxCell id="224" style="edgeStyle=none;html=1;exitX=0.5;exitY=0;exitDx=0;exitDy=0;entryX=0.478;entryY=1;entryDx=0;entryDy=0;entryPerimeter=0;fontSize=10;startArrow=classic;startFill=1;endArrow=none;endFill=0;" parent="1" source="161" target="130" edge="1">
                    <mxGeometry relative="1" as="geometry"/>
                </mxCell>
                <mxCell id="305" style="edgeStyle=none;html=1;exitX=0;exitY=0.25;exitDx=0;exitDy=0;entryX=1;entryY=0.25;entryDx=0;entryDy=0;strokeColor=default;fontSize=12;startArrow=none;startFill=0;endArrow=classic;endFill=1;" parent="1" source="161" target="139" edge="1">
                    <mxGeometry relative="1" as="geometry"/>
                </mxCell>
                <mxCell id="306" style="edgeStyle=none;html=1;exitX=0;exitY=0.75;exitDx=0;exitDy=0;entryX=1;entryY=0.75;entryDx=0;entryDy=0;strokeColor=default;fontSize=12;startArrow=none;startFill=0;endArrow=classic;endFill=1;" parent="1" source="161" target="139" edge="1">
                    <mxGeometry relative="1" as="geometry"/>
                </mxCell>
                <mxCell id="161" value="&amp;nbsp;manual core compute infra provisioning with scripts (community self service )" style="rounded=0;whiteSpace=wrap;html=1;fontSize=12;fillColor=none;" parent="1" vertex="1">
                    <mxGeometry x="897" y="645" width="230" height="30" as="geometry"/>
                </mxCell>
                <mxCell id="163" value="&lt;font style=&quot;&quot;&gt;&lt;font style=&quot;font-size: 10px;&quot;&gt;physical infrastructure (hardware layer)&lt;/font&gt;&lt;br&gt;&lt;/font&gt;" style="rounded=0;whiteSpace=wrap;html=1;fontSize=15;fillColor=none;fontColor=default;strokeColor=#432D57;" parent="1" vertex="1">
                    <mxGeometry x="1257" y="695" width="110" height="40" as="geometry"/>
                </mxCell>
                <mxCell id="214" style="edgeStyle=none;html=1;exitX=1;exitY=0.5;exitDx=0;exitDy=0;fontSize=10;startArrow=classic;startFill=1;endArrow=none;endFill=0;" parent="1" source="170" edge="1">
                    <mxGeometry relative="1" as="geometry">
                        <mxPoint x="737" y="495" as="targetPoint"/>
                        <Array as="points">
                            <mxPoint x="737" y="475"/>
                        </Array>
                    </mxGeometry>
                </mxCell>
                <mxCell id="170" value="&lt;font style=&quot;font-size: 10px;&quot;&gt;DApp&lt;/font&gt;" style="rounded=0;whiteSpace=wrap;html=1;fontSize=12;fillColor=none;" parent="1" vertex="1">
                    <mxGeometry x="687" y="465" width="30" height="20" as="geometry"/>
                </mxCell>
                <mxCell id="213" style="edgeStyle=none;html=1;exitX=1;exitY=0.5;exitDx=0;exitDy=0;entryX=1;entryY=0;entryDx=0;entryDy=0;fontSize=10;startArrow=classic;startFill=1;endArrow=none;endFill=0;" parent="1" source="171" target="194" edge="1">
                    <mxGeometry relative="1" as="geometry">
                        <Array as="points">
                            <mxPoint x="737" y="445"/>
                        </Array>
                    </mxGeometry>
                </mxCell>
                <mxCell id="171" value="&lt;font style=&quot;font-size: 10px;&quot;&gt;DApp&lt;/font&gt;" style="rounded=0;whiteSpace=wrap;html=1;fontSize=12;fillColor=none;" parent="1" vertex="1">
                    <mxGeometry x="687" y="435" width="30" height="20" as="geometry"/>
                </mxCell>
                <mxCell id="236" style="edgeStyle=none;html=1;exitX=0.5;exitY=1;exitDx=0;exitDy=0;entryX=0.352;entryY=-0.011;entryDx=0;entryDy=0;entryPerimeter=0;fontSize=10;startArrow=classic;startFill=1;endArrow=none;endFill=0;" parent="1" source="194" target="137" edge="1">
                    <mxGeometry relative="1" as="geometry"/>
                </mxCell>
                <mxCell id="194" value="Service-Platform" style="rounded=0;whiteSpace=wrap;html=1;fillColor=none;dashed=1;" parent="1" vertex="1">
                    <mxGeometry x="687" y="495" width="50" height="30" as="geometry"/>
                </mxCell>
                <mxCell id="227" style="edgeStyle=none;html=1;exitX=0.5;exitY=1;exitDx=0;exitDy=0;entryX=0.625;entryY=0.04;entryDx=0;entryDy=0;entryPerimeter=0;fontSize=10;startArrow=none;startFill=0;endArrow=classic;endFill=1;" parent="1" source="205" target="139" edge="1">
                    <mxGeometry relative="1" as="geometry"/>
                </mxCell>
                <mxCell id="205" value="layer-1 &lt;br&gt;blockchain" style="rounded=0;whiteSpace=wrap;html=1;fillColor=none;" parent="1" vertex="1">
                    <mxGeometry x="777" y="545" width="70" height="30" as="geometry"/>
                </mxCell>
                <mxCell id="216" style="edgeStyle=none;html=1;exitX=1;exitY=0.5;exitDx=0;exitDy=0;entryX=1;entryY=0;entryDx=0;entryDy=0;fontSize=10;startArrow=classic;startFill=1;endArrow=none;endFill=0;" parent="1" source="206" target="208" edge="1">
                    <mxGeometry relative="1" as="geometry">
                        <Array as="points">
                            <mxPoint x="827" y="475"/>
                        </Array>
                    </mxGeometry>
                </mxCell>
                <mxCell id="206" value="&lt;font style=&quot;font-size: 10px;&quot;&gt;DApp&lt;/font&gt;" style="rounded=0;whiteSpace=wrap;html=1;fontSize=12;fillColor=none;" parent="1" vertex="1">
                    <mxGeometry x="777" y="465" width="30" height="20" as="geometry"/>
                </mxCell>
                <mxCell id="215" style="edgeStyle=none;html=1;exitX=1;exitY=0.5;exitDx=0;exitDy=0;entryX=1;entryY=0;entryDx=0;entryDy=0;fontSize=10;startArrow=classic;startFill=1;endArrow=none;endFill=0;" parent="1" source="207" target="208" edge="1">
                    <mxGeometry relative="1" as="geometry">
                        <Array as="points">
                            <mxPoint x="827" y="445"/>
                        </Array>
                    </mxGeometry>
                </mxCell>
                <mxCell id="207" value="&lt;font style=&quot;font-size: 10px;&quot;&gt;DApp&lt;/font&gt;" style="rounded=0;whiteSpace=wrap;html=1;fontSize=12;fillColor=none;" parent="1" vertex="1">
                    <mxGeometry x="777" y="435" width="30" height="20" as="geometry"/>
                </mxCell>
                <mxCell id="237" style="edgeStyle=none;html=1;exitX=0.5;exitY=1;exitDx=0;exitDy=0;entryX=0.354;entryY=0.001;entryDx=0;entryDy=0;entryPerimeter=0;fontSize=10;startArrow=classic;startFill=1;endArrow=none;endFill=0;" parent="1" source="208" target="205" edge="1">
                    <mxGeometry relative="1" as="geometry"/>
                </mxCell>
                <mxCell id="208" value="Service-Platform" style="rounded=0;whiteSpace=wrap;html=1;fillColor=none;dashed=1;" parent="1" vertex="1">
                    <mxGeometry x="777" y="495" width="50" height="30" as="geometry"/>
                </mxCell>
                <mxCell id="228" style="edgeStyle=none;html=1;exitX=0.5;exitY=1;exitDx=0;exitDy=0;entryX=0.02;entryY=-0.024;entryDx=0;entryDy=0;entryPerimeter=0;fontSize=10;startArrow=none;startFill=0;endArrow=classic;endFill=1;" parent="1" source="209" target="161" edge="1">
                    <mxGeometry relative="1" as="geometry"/>
                </mxCell>
                <mxCell id="209" value="layer-1 &lt;br&gt;blockchain" style="rounded=0;whiteSpace=wrap;html=1;fillColor=none;" parent="1" vertex="1">
                    <mxGeometry x="867" y="545" width="70" height="30" as="geometry"/>
                </mxCell>
                <mxCell id="218" style="edgeStyle=none;html=1;exitX=1;exitY=0.5;exitDx=0;exitDy=0;entryX=1;entryY=0;entryDx=0;entryDy=0;fontSize=10;startArrow=classic;startFill=1;endArrow=none;endFill=0;" parent="1" source="210" target="212" edge="1">
                    <mxGeometry relative="1" as="geometry">
                        <Array as="points">
                            <mxPoint x="917" y="475"/>
                        </Array>
                    </mxGeometry>
                </mxCell>
                <mxCell id="210" value="&lt;font style=&quot;font-size: 10px;&quot;&gt;DApp&lt;/font&gt;" style="rounded=0;whiteSpace=wrap;html=1;fontSize=12;fillColor=none;" parent="1" vertex="1">
                    <mxGeometry x="867" y="465" width="30" height="20" as="geometry"/>
                </mxCell>
                <mxCell id="217" style="edgeStyle=none;html=1;exitX=1;exitY=0.5;exitDx=0;exitDy=0;entryX=1;entryY=0;entryDx=0;entryDy=0;fontSize=10;startArrow=classic;startFill=1;endArrow=none;endFill=0;" parent="1" source="211" target="212" edge="1">
                    <mxGeometry relative="1" as="geometry">
                        <Array as="points">
                            <mxPoint x="917" y="445"/>
                        </Array>
                    </mxGeometry>
                </mxCell>
                <mxCell id="211" value="&lt;font style=&quot;font-size: 10px;&quot;&gt;DApp&lt;/font&gt;" style="rounded=0;whiteSpace=wrap;html=1;fontSize=12;fillColor=none;" parent="1" vertex="1">
                    <mxGeometry x="867" y="435" width="30" height="20" as="geometry"/>
                </mxCell>
                <mxCell id="238" style="edgeStyle=none;html=1;exitX=0.5;exitY=1;exitDx=0;exitDy=0;entryX=0.356;entryY=0;entryDx=0;entryDy=0;entryPerimeter=0;fontSize=10;startArrow=classic;startFill=1;endArrow=none;endFill=0;" parent="1" source="212" target="209" edge="1">
                    <mxGeometry relative="1" as="geometry"/>
                </mxCell>
                <mxCell id="212" value="Service-Platform" style="rounded=0;whiteSpace=wrap;html=1;fillColor=none;dashed=1;" parent="1" vertex="1">
                    <mxGeometry x="867" y="495" width="50" height="30" as="geometry"/>
                </mxCell>
                <mxCell id="235" style="edgeStyle=none;html=1;exitX=0.5;exitY=1;exitDx=0;exitDy=0;entryX=0.413;entryY=-0.04;entryDx=0;entryDy=0;entryPerimeter=0;fontSize=10;startArrow=none;startFill=0;endArrow=classic;endFill=1;" parent="1" source="229" target="161" edge="1">
                    <mxGeometry relative="1" as="geometry"/>
                </mxCell>
                <mxCell id="229" value="layer-1 &lt;br&gt;blockchain" style="rounded=0;whiteSpace=wrap;html=1;fillColor=none;" parent="1" vertex="1">
                    <mxGeometry x="957" y="545" width="70" height="30" as="geometry"/>
                </mxCell>
                <mxCell id="230" style="edgeStyle=none;html=1;exitX=1;exitY=0.5;exitDx=0;exitDy=0;entryX=1;entryY=0;entryDx=0;entryDy=0;fontSize=10;startArrow=classic;startFill=1;endArrow=none;endFill=0;" parent="1" source="231" target="234" edge="1">
                    <mxGeometry relative="1" as="geometry">
                        <Array as="points">
                            <mxPoint x="1007" y="475"/>
                        </Array>
                    </mxGeometry>
                </mxCell>
                <mxCell id="231" value="&lt;font style=&quot;font-size: 10px;&quot;&gt;DApp&lt;/font&gt;" style="rounded=0;whiteSpace=wrap;html=1;fontSize=12;fillColor=none;" parent="1" vertex="1">
                    <mxGeometry x="957" y="465" width="30" height="20" as="geometry"/>
                </mxCell>
                <mxCell id="232" style="edgeStyle=none;html=1;exitX=1;exitY=0.5;exitDx=0;exitDy=0;entryX=1;entryY=0;entryDx=0;entryDy=0;fontSize=10;startArrow=classic;startFill=1;endArrow=none;endFill=0;" parent="1" source="233" target="234" edge="1">
                    <mxGeometry relative="1" as="geometry">
                        <Array as="points">
                            <mxPoint x="1007" y="445"/>
                        </Array>
                    </mxGeometry>
                </mxCell>
                <mxCell id="233" value="&lt;font style=&quot;font-size: 10px;&quot;&gt;DApp&lt;/font&gt;" style="rounded=0;whiteSpace=wrap;html=1;fontSize=12;fillColor=none;" parent="1" vertex="1">
                    <mxGeometry x="957" y="435" width="30" height="20" as="geometry"/>
                </mxCell>
                <mxCell id="239" style="edgeStyle=none;html=1;exitX=0.5;exitY=1;exitDx=0;exitDy=0;entryX=0.356;entryY=0;entryDx=0;entryDy=0;entryPerimeter=0;fontSize=10;startArrow=classic;startFill=1;endArrow=none;endFill=0;" parent="1" source="234" target="229" edge="1">
                    <mxGeometry relative="1" as="geometry"/>
                </mxCell>
                <mxCell id="234" value="Service-Platform" style="rounded=0;whiteSpace=wrap;html=1;fillColor=none;dashed=1;" parent="1" vertex="1">
                    <mxGeometry x="957" y="495" width="50" height="30" as="geometry"/>
                </mxCell>
                <mxCell id="260" style="edgeStyle=none;html=1;exitX=0.5;exitY=1;exitDx=0;exitDy=0;fontSize=12;startArrow=none;startFill=0;endArrow=classic;endFill=1;fillColor=#fff2cc;gradientColor=#ffd966;strokeColor=default;" parent="1" source="240" edge="1">
                    <mxGeometry relative="1" as="geometry">
                        <mxPoint x="1297" y="645" as="targetPoint"/>
                    </mxGeometry>
                </mxCell>
                <mxCell id="261" style="edgeStyle=none;html=1;exitX=1;exitY=0.5;exitDx=0;exitDy=0;fontSize=12;startArrow=none;startFill=0;endArrow=classic;endFill=1;fillColor=#fff2cc;gradientColor=#ffd966;strokeColor=#d6b656;entryX=1;entryY=0.5;entryDx=0;entryDy=0;" parent="1" source="240" target="133" edge="1">
                    <mxGeometry relative="1" as="geometry">
                        <mxPoint x="1337" y="635" as="targetPoint"/>
                        <Array as="points">
                            <mxPoint x="1387" y="560"/>
                            <mxPoint x="1387" y="660"/>
                        </Array>
                    </mxGeometry>
                </mxCell>
                <mxCell id="240" value="Logos Chain (parachain)" style="rounded=0;whiteSpace=wrap;html=1;fillColor=none;gradientColor=#ffd966;strokeColor=#d6b656;" parent="1" vertex="1">
                    <mxGeometry x="1257" y="545" width="80" height="30" as="geometry"/>
                </mxCell>
                <mxCell id="241" value="&lt;font color=&quot;#a50040&quot; style=&quot;font-size: 12px;&quot;&gt;Polkadot (rellay chain)&lt;/font&gt;" style="text;html=1;strokeColor=none;fillColor=none;align=center;verticalAlign=middle;whiteSpace=wrap;rounded=0;dashed=1;fontSize=10;" parent="1" vertex="1">
                    <mxGeometry x="1187" y="595" width="140" height="30" as="geometry"/>
                </mxCell>
                <mxCell id="267" style="edgeStyle=none;html=1;exitX=0.5;exitY=1;exitDx=0;exitDy=0;entryX=0.5;entryY=0;entryDx=0;entryDy=0;strokeColor=default;fontSize=12;startArrow=classic;startFill=1;endArrow=none;endFill=0;" parent="1" source="242" target="240" edge="1">
                    <mxGeometry relative="1" as="geometry"/>
                </mxCell>
                <mxCell id="279" style="edgeStyle=none;html=1;exitX=1;exitY=0.5;exitDx=0;exitDy=0;entryX=0;entryY=0.5;entryDx=0;entryDy=0;strokeColor=default;fontSize=9;startArrow=classic;startFill=1;endArrow=none;endFill=0;" parent="1" source="242" target="264" edge="1">
                    <mxGeometry relative="1" as="geometry"/>
                </mxCell>
                <mxCell id="242" value="Smart Contract Logic" style="rounded=0;whiteSpace=wrap;html=1;fillColor=none;dashed=1;gradientColor=#ffd966;strokeColor=#d6b656;" parent="1" vertex="1">
                    <mxGeometry x="1257" y="495" width="80" height="30" as="geometry"/>
                </mxCell>
                <mxCell id="262" style="edgeStyle=none;html=1;exitX=1;exitY=0.5;exitDx=0;exitDy=0;entryX=0.624;entryY=-0.039;entryDx=0;entryDy=0;entryPerimeter=0;strokeColor=default;fontSize=12;startArrow=classic;startFill=1;endArrow=none;endFill=0;" parent="1" source="245" target="242" edge="1">
                    <mxGeometry relative="1" as="geometry">
                        <Array as="points">
                            <mxPoint x="1307" y="475"/>
                        </Array>
                    </mxGeometry>
                </mxCell>
                <mxCell id="245" value="&lt;font style=&quot;font-size: 10px;&quot;&gt;SmCo&lt;/font&gt;" style="rounded=0;whiteSpace=wrap;html=1;fontSize=12;fillColor=none;gradientColor=#ffd966;strokeColor=#d6b656;" parent="1" vertex="1">
                    <mxGeometry x="1257" y="465" width="30" height="20" as="geometry"/>
                </mxCell>
                <mxCell id="263" style="edgeStyle=none;html=1;exitX=1;exitY=0.5;exitDx=0;exitDy=0;entryX=0.624;entryY=-0.052;entryDx=0;entryDy=0;entryPerimeter=0;strokeColor=default;fontSize=12;startArrow=classic;startFill=1;endArrow=none;endFill=0;" parent="1" source="248" target="242" edge="1">
                    <mxGeometry relative="1" as="geometry">
                        <Array as="points">
                            <mxPoint x="1307" y="445"/>
                        </Array>
                    </mxGeometry>
                </mxCell>
                <mxCell id="248" value="&lt;font style=&quot;font-size: 10px;&quot;&gt;SmCo&lt;/font&gt;" style="rounded=0;whiteSpace=wrap;html=1;fontSize=12;fillColor=none;gradientColor=#ffd966;strokeColor=#d6b656;" parent="1" vertex="1">
                    <mxGeometry x="1257" y="435" width="30" height="20" as="geometry"/>
                </mxCell>
                <mxCell id="259" style="edgeStyle=none;html=1;exitX=0.5;exitY=1;exitDx=0;exitDy=0;entryX=0.203;entryY=0;entryDx=0;entryDy=0;entryPerimeter=0;fontSize=12;startArrow=none;startFill=0;endArrow=classic;endFill=1;" parent="1" source="252" target="133" edge="1">
                    <mxGeometry relative="1" as="geometry"/>
                </mxCell>
                <mxCell id="252" value="layer-1 &lt;br&gt;blockchain" style="rounded=0;whiteSpace=wrap;html=1;fillColor=none;" parent="1" vertex="1">
                    <mxGeometry x="1157" y="545" width="70" height="30" as="geometry"/>
                </mxCell>
                <mxCell id="253" style="edgeStyle=none;html=1;exitX=1;exitY=0.5;exitDx=0;exitDy=0;entryX=1;entryY=0;entryDx=0;entryDy=0;fontSize=10;startArrow=classic;startFill=1;endArrow=none;endFill=0;" parent="1" source="254" target="258" edge="1">
                    <mxGeometry relative="1" as="geometry">
                        <Array as="points">
                            <mxPoint x="1207" y="475"/>
                        </Array>
                    </mxGeometry>
                </mxCell>
                <mxCell id="254" value="&lt;font style=&quot;font-size: 10px;&quot;&gt;DApp&lt;/font&gt;" style="rounded=0;whiteSpace=wrap;html=1;fontSize=12;fillColor=none;" parent="1" vertex="1">
                    <mxGeometry x="1157" y="465" width="30" height="20" as="geometry"/>
                </mxCell>
                <mxCell id="255" style="edgeStyle=none;html=1;exitX=1;exitY=0.5;exitDx=0;exitDy=0;entryX=1;entryY=0;entryDx=0;entryDy=0;fontSize=10;startArrow=classic;startFill=1;endArrow=none;endFill=0;" parent="1" source="256" target="258" edge="1">
                    <mxGeometry relative="1" as="geometry">
                        <Array as="points">
                            <mxPoint x="1207" y="445"/>
                        </Array>
                    </mxGeometry>
                </mxCell>
                <mxCell id="256" value="&lt;font style=&quot;font-size: 10px;&quot;&gt;DApp&lt;/font&gt;" style="rounded=0;whiteSpace=wrap;html=1;fontSize=12;fillColor=none;" parent="1" vertex="1">
                    <mxGeometry x="1157" y="435" width="30" height="20" as="geometry"/>
                </mxCell>
                <mxCell id="257" style="edgeStyle=none;html=1;exitX=0.5;exitY=1;exitDx=0;exitDy=0;entryX=0.356;entryY=0;entryDx=0;entryDy=0;entryPerimeter=0;fontSize=10;startArrow=classic;startFill=1;endArrow=none;endFill=0;" parent="1" source="258" target="252" edge="1">
                    <mxGeometry relative="1" as="geometry"/>
                </mxCell>
                <mxCell id="258" value="Service-Platform" style="rounded=0;whiteSpace=wrap;html=1;fillColor=none;dashed=1;" parent="1" vertex="1">
                    <mxGeometry x="1157" y="495" width="50" height="30" as="geometry"/>
                </mxCell>
                <mxCell id="264" value="Web2to3&lt;br&gt;oracle" style="rounded=0;whiteSpace=wrap;html=1;fillColor=none;dashed=1;gradientColor=#ffd966;strokeColor=#d6b656;" parent="1" vertex="1">
                    <mxGeometry x="1357" y="495" width="80" height="30" as="geometry"/>
                </mxCell>
                <mxCell id="274" style="edgeStyle=none;html=1;exitX=1;exitY=0.5;exitDx=0;exitDy=0;entryX=0.755;entryY=-0.053;entryDx=0;entryDy=0;entryPerimeter=0;strokeColor=default;fontSize=9;startArrow=classic;startFill=1;endArrow=none;endFill=0;" parent="1" source="265" target="264" edge="1">
                    <mxGeometry relative="1" as="geometry">
                        <Array as="points">
                            <mxPoint x="1417" y="445"/>
                        </Array>
                    </mxGeometry>
                </mxCell>
                <mxCell id="265" value="&lt;font style=&quot;font-size: 9px;&quot;&gt;W2t3App&lt;/font&gt;" style="rounded=0;whiteSpace=wrap;html=1;fontSize=12;fillColor=none;gradientColor=#ffd966;strokeColor=#d6b656;" parent="1" vertex="1">
                    <mxGeometry x="1357" y="435" width="40" height="20" as="geometry"/>
                </mxCell>
                <mxCell id="275" style="edgeStyle=none;html=1;exitX=1;exitY=0.5;exitDx=0;exitDy=0;entryX=0.755;entryY=-0.045;entryDx=0;entryDy=0;entryPerimeter=0;strokeColor=default;fontSize=9;startArrow=classic;startFill=1;endArrow=none;endFill=0;" parent="1" source="272" target="264" edge="1">
                    <mxGeometry relative="1" as="geometry">
                        <Array as="points">
                            <mxPoint x="1417" y="475"/>
                        </Array>
                    </mxGeometry>
                </mxCell>
                <mxCell id="272" value="&lt;font style=&quot;font-size: 9px;&quot;&gt;W2t3App&lt;/font&gt;" style="rounded=0;whiteSpace=wrap;html=1;fontSize=12;fillColor=none;gradientColor=#ffd966;strokeColor=#d6b656;" parent="1" vertex="1">
                    <mxGeometry x="1357" y="465" width="40" height="20" as="geometry"/>
                </mxCell>
                <mxCell id="273" value="" style="endArrow=none;dashed=1;html=1;fontSize=12;strokeWidth=2;fillColor=#fff2cc;gradientColor=#ffd966;strokeColor=#d6b656;" parent="1" edge="1">
                    <mxGeometry width="50" height="50" relative="1" as="geometry">
                        <mxPoint x="1137" y="695" as="sourcePoint"/>
                        <mxPoint x="1137" y="625" as="targetPoint"/>
                    </mxGeometry>
                </mxCell>
                <mxCell id="280" value="&lt;font size=&quot;1&quot; style=&quot;&quot;&gt;&lt;b style=&quot;font-size: 20px;&quot;&gt;...&lt;/b&gt;&lt;/font&gt;" style="text;html=1;strokeColor=none;fillColor=none;align=center;verticalAlign=middle;whiteSpace=wrap;rounded=0;rotation=0;" parent="1" vertex="1">
                    <mxGeometry x="232" y="405" width="60" height="30" as="geometry"/>
                </mxCell>
                <mxCell id="281" value="&lt;font size=&quot;1&quot; style=&quot;&quot;&gt;&lt;b style=&quot;font-size: 20px;&quot;&gt;...&lt;/b&gt;&lt;/font&gt;" style="text;html=1;strokeColor=none;fillColor=none;align=center;verticalAlign=middle;whiteSpace=wrap;rounded=0;rotation=0;" parent="1" vertex="1">
                    <mxGeometry x="302" y="405" width="60" height="30" as="geometry"/>
                </mxCell>
                <mxCell id="282" value="&lt;font size=&quot;1&quot; style=&quot;&quot;&gt;&lt;b style=&quot;font-size: 20px;&quot;&gt;...&lt;/b&gt;&lt;/font&gt;" style="text;html=1;strokeColor=none;fillColor=none;align=center;verticalAlign=middle;whiteSpace=wrap;rounded=0;rotation=0;" parent="1" vertex="1">
                    <mxGeometry x="392" y="405" width="60" height="30" as="geometry"/>
                </mxCell>
                <mxCell id="283" value="&lt;font size=&quot;1&quot; style=&quot;&quot;&gt;&lt;b style=&quot;font-size: 20px;&quot;&gt;...&lt;/b&gt;&lt;/font&gt;" style="text;html=1;strokeColor=none;fillColor=none;align=center;verticalAlign=middle;whiteSpace=wrap;rounded=0;rotation=0;" parent="1" vertex="1">
                    <mxGeometry x="462" y="405" width="60" height="30" as="geometry"/>
                </mxCell>
                <mxCell id="284" value="&lt;font size=&quot;1&quot; style=&quot;&quot;&gt;&lt;b style=&quot;font-size: 20px;&quot;&gt;...&lt;/b&gt;&lt;/font&gt;" style="text;html=1;strokeColor=none;fillColor=none;align=center;verticalAlign=middle;whiteSpace=wrap;rounded=0;rotation=0;" parent="1" vertex="1">
                    <mxGeometry x="532" y="405" width="60" height="30" as="geometry"/>
                </mxCell>
                <mxCell id="285" value="&lt;font size=&quot;1&quot; style=&quot;&quot;&gt;&lt;b style=&quot;font-size: 20px;&quot;&gt;...&lt;/b&gt;&lt;/font&gt;" style="text;html=1;strokeColor=none;fillColor=none;align=center;verticalAlign=middle;whiteSpace=wrap;rounded=0;rotation=-90;" parent="1" vertex="1">
                    <mxGeometry x="337" y="495" width="60" height="30" as="geometry"/>
                </mxCell>
                <mxCell id="286" value="&lt;font size=&quot;1&quot; style=&quot;&quot;&gt;&lt;b style=&quot;font-size: 20px;&quot;&gt;...&lt;/b&gt;&lt;/font&gt;" style="text;html=1;strokeColor=none;fillColor=none;align=center;verticalAlign=middle;whiteSpace=wrap;rounded=0;rotation=-90;" parent="1" vertex="1">
                    <mxGeometry x="567" y="495" width="60" height="30" as="geometry"/>
                </mxCell>
                <mxCell id="287" value="&lt;font size=&quot;1&quot; style=&quot;&quot;&gt;&lt;b style=&quot;font-size: 20px;&quot;&gt;...&lt;/b&gt;&lt;/font&gt;" style="text;html=1;strokeColor=none;fillColor=none;align=center;verticalAlign=middle;whiteSpace=wrap;rounded=0;rotation=-90;" parent="1" vertex="1">
                    <mxGeometry x="707" y="495" width="60" height="30" as="geometry"/>
                </mxCell>
                <mxCell id="288" value="&lt;font size=&quot;1&quot; style=&quot;&quot;&gt;&lt;b style=&quot;font-size: 20px;&quot;&gt;...&lt;/b&gt;&lt;/font&gt;" style="text;html=1;strokeColor=none;fillColor=none;align=center;verticalAlign=middle;whiteSpace=wrap;rounded=0;rotation=-90;" parent="1" vertex="1">
                    <mxGeometry x="797" y="495" width="60" height="30" as="geometry"/>
                </mxCell>
                <mxCell id="289" value="&lt;font size=&quot;1&quot; style=&quot;&quot;&gt;&lt;b style=&quot;font-size: 20px;&quot;&gt;...&lt;/b&gt;&lt;/font&gt;" style="text;html=1;strokeColor=none;fillColor=none;align=center;verticalAlign=middle;whiteSpace=wrap;rounded=0;rotation=-90;" parent="1" vertex="1">
                    <mxGeometry x="887" y="495" width="60" height="30" as="geometry"/>
                </mxCell>
                <mxCell id="290" value="&lt;font size=&quot;1&quot; style=&quot;&quot;&gt;&lt;b style=&quot;font-size: 20px;&quot;&gt;...&lt;/b&gt;&lt;/font&gt;" style="text;html=1;strokeColor=none;fillColor=none;align=center;verticalAlign=middle;whiteSpace=wrap;rounded=0;rotation=-90;" parent="1" vertex="1">
                    <mxGeometry x="977" y="495" width="60" height="30" as="geometry"/>
                </mxCell>
                <mxCell id="291" value="&lt;font size=&quot;1&quot; style=&quot;&quot;&gt;&lt;b style=&quot;font-size: 20px;&quot;&gt;...&lt;/b&gt;&lt;/font&gt;" style="text;html=1;strokeColor=none;fillColor=none;align=center;verticalAlign=middle;whiteSpace=wrap;rounded=0;rotation=-90;" parent="1" vertex="1">
                    <mxGeometry x="1177" y="495" width="60" height="30" as="geometry"/>
                </mxCell>
                <mxCell id="292" value="&lt;font size=&quot;1&quot; style=&quot;&quot;&gt;&lt;b style=&quot;font-size: 20px;&quot;&gt;...&lt;/b&gt;&lt;/font&gt;" style="text;html=1;strokeColor=none;fillColor=none;align=center;verticalAlign=middle;whiteSpace=wrap;rounded=0;rotation=-90;" parent="1" vertex="1">
                    <mxGeometry x="1197" y="545" width="60" height="30" as="geometry"/>
                </mxCell>
                <mxCell id="293" value="&lt;font size=&quot;1&quot; style=&quot;&quot;&gt;&lt;b style=&quot;font-size: 20px;&quot;&gt;...&lt;/b&gt;&lt;/font&gt;" style="text;html=1;strokeColor=none;fillColor=none;align=center;verticalAlign=middle;whiteSpace=wrap;rounded=0;rotation=-90;" parent="1" vertex="1">
                    <mxGeometry x="997" y="545" width="60" height="30" as="geometry"/>
                </mxCell>
                <mxCell id="294" value="&lt;font size=&quot;1&quot; style=&quot;&quot;&gt;&lt;b style=&quot;font-size: 20px;&quot;&gt;...&lt;/b&gt;&lt;/font&gt;" style="text;html=1;strokeColor=none;fillColor=none;align=center;verticalAlign=middle;whiteSpace=wrap;rounded=0;rotation=0;" parent="1" vertex="1">
                    <mxGeometry x="672" y="405" width="60" height="30" as="geometry"/>
                </mxCell>
                <mxCell id="295" value="&lt;font size=&quot;1&quot; style=&quot;&quot;&gt;&lt;b style=&quot;font-size: 20px;&quot;&gt;...&lt;/b&gt;&lt;/font&gt;" style="text;html=1;strokeColor=none;fillColor=none;align=center;verticalAlign=middle;whiteSpace=wrap;rounded=0;rotation=0;" parent="1" vertex="1">
                    <mxGeometry x="762" y="405" width="60" height="30" as="geometry"/>
                </mxCell>
                <mxCell id="296" value="&lt;font size=&quot;1&quot; style=&quot;&quot;&gt;&lt;b style=&quot;font-size: 20px;&quot;&gt;...&lt;/b&gt;&lt;/font&gt;" style="text;html=1;strokeColor=none;fillColor=none;align=center;verticalAlign=middle;whiteSpace=wrap;rounded=0;rotation=0;" parent="1" vertex="1">
                    <mxGeometry x="852" y="405" width="60" height="30" as="geometry"/>
                </mxCell>
                <mxCell id="297" value="&lt;font size=&quot;1&quot; style=&quot;&quot;&gt;&lt;b style=&quot;font-size: 20px;&quot;&gt;...&lt;/b&gt;&lt;/font&gt;" style="text;html=1;strokeColor=none;fillColor=none;align=center;verticalAlign=middle;whiteSpace=wrap;rounded=0;rotation=0;" parent="1" vertex="1">
                    <mxGeometry x="942" y="405" width="60" height="30" as="geometry"/>
                </mxCell>
                <mxCell id="298" value="&lt;font size=&quot;1&quot; style=&quot;&quot;&gt;&lt;b style=&quot;font-size: 20px;&quot;&gt;...&lt;/b&gt;&lt;/font&gt;" style="text;html=1;strokeColor=none;fillColor=none;align=center;verticalAlign=middle;whiteSpace=wrap;rounded=0;rotation=0;" parent="1" vertex="1">
                    <mxGeometry x="1142" y="405" width="60" height="30" as="geometry"/>
                </mxCell>
                <mxCell id="299" value="&lt;font size=&quot;1&quot; style=&quot;&quot;&gt;&lt;b style=&quot;font-size: 20px;&quot;&gt;...&lt;/b&gt;&lt;/font&gt;" style="text;html=1;strokeColor=none;fillColor=none;align=center;verticalAlign=middle;whiteSpace=wrap;rounded=0;rotation=0;" parent="1" vertex="1">
                    <mxGeometry x="1242" y="405" width="60" height="30" as="geometry"/>
                </mxCell>
                <mxCell id="300" value="&lt;font size=&quot;1&quot; style=&quot;&quot;&gt;&lt;b style=&quot;font-size: 20px;&quot;&gt;...&lt;/b&gt;&lt;/font&gt;" style="text;html=1;strokeColor=none;fillColor=none;align=center;verticalAlign=middle;whiteSpace=wrap;rounded=0;rotation=0;" parent="1" vertex="1">
                    <mxGeometry x="1347" y="405" width="60" height="30" as="geometry"/>
                </mxCell>
                <mxCell id="313" style="edgeStyle=none;html=1;exitX=1;exitY=0.5;exitDx=0;exitDy=0;entryX=1;entryY=0.25;entryDx=0;entryDy=0;strokeColor=#82b366;fontSize=12;fontColor=default;startArrow=none;startFill=0;endArrow=classic;endFill=1;fillColor=#d5e8d4;gradientColor=#97d077;" parent="1" source="312" target="311" edge="1">
                    <mxGeometry relative="1" as="geometry">
                        <Array as="points">
                            <mxPoint x="1407" y="760"/>
                            <mxPoint x="1407" y="648"/>
                        </Array>
                    </mxGeometry>
                </mxCell>
                <mxCell id="312" value="&lt;font style=&quot;font-size: 12px;&quot;&gt;Fully decentralized, automated and secured by the Blockchain technologie&lt;/font&gt;" style="text;whiteSpace=wrap;html=1;fontSize=15;" parent="1" vertex="1">
                    <mxGeometry x="987" y="745" width="400" height="30" as="geometry"/>
                </mxCell>
            </root>
        </mxGraphModel>
    </diagram>
</mxfile>